<?xml version="1.0"?>
<svg xmlns="http://www.w3.org/2000/svg" xmlns:xlink="http://www.w3.org/1999/xlink" xmlns:svgjs="http://svgjs.com/svgjs" version="1.1" width="512" height="512" x="0" y="0" viewBox="0 0 24 24" style="enable-background:new 0 0 512 512" xml:space="preserve" class=""><g><path xmlns="http://www.w3.org/2000/svg" d="m12 6.25c-1.241 0-2.25-1.009-2.25-2.25s1.009-2.25 2.25-2.25 2.25 1.009 2.25 2.25-1.009 2.25-2.25 2.25z" fill="#550055" data-original="#90a4ae" style="" class=""/><path xmlns="http://www.w3.org/2000/svg" d="m21.25 22.25h-18.5c-1.105 0-2-.895-2-2v-7.5c0-1.105.895-2 2-2h18.5c1.105 0 2 .895 2 2v7.5c0 1.105-.895 2-2 2z" fill="#7a98e5" data-original="#a4279f" style="" class=""/><path xmlns="http://www.w3.org/2000/svg" d="m10.75 17.75h-2.5c-.414 0-.75-.336-.75-.75s.336-.75.75-.75h2.5c.414 0 .75.336.75.75s-.336.75-.75.75z" fill="#ffffff" data-original="#000000" style="" class=""/><path xmlns="http://www.w3.org/2000/svg" d="m10.75 20h-1.5c-.965 0-1.75-.785-1.75-1.75v-2.5c0-.965.785-1.75 1.75-1.75h1.5c.414 0 .75.336.75.75s-.336.75-.75.75h-1.5c-.138 0-.25.112-.25.25v2.5c0 .138.112.25.25.25h1.5c.414 0 .75.336.75.75s-.336.75-.75.75z" fill="#ffffff" data-original="#000000" style="" class=""/><path xmlns="http://www.w3.org/2000/svg" d="m5.75 20c-.414 0-.75-.336-.75-.75v-1.441c-.271.242-.729.242-1 0v1.441c0 .414-.336.75-.75.75s-.75-.336-.75-.75v-4.5c0-.348.239-.65.578-.729.34-.081.688.083.843.395l.579 1.157.579-1.158c.156-.313.503-.477.843-.395.339.08.578.382.578.73v4.5c0 .414-.336.75-.75.75z" fill="#ffffff" data-original="#000000" style="" class=""/><path xmlns="http://www.w3.org/2000/svg" d="m15.75 20c-.268 0-.521-.144-.656-.386l-1.094-1.969v1.605c0 .414-.336.75-.75.75s-.75-.336-.75-.75v-4.5c0-.342.231-.641.562-.726.329-.087.678.063.844.361l1.094 1.97v-1.605c0-.414.336-.75.75-.75s.75.336.75.75v4.5c0 .342-.231.641-.562.726-.063.016-.125.024-.188.024z" fill="#ffffff" data-original="#000000" style="" class=""/><path xmlns="http://www.w3.org/2000/svg" d="m19.75 20h-.5c-.965 0-1.75-.785-1.75-1.75v-3.5c0-.414.336-.75.75-.75s.75.336.75.75v3.5c0 .138.112.25.25.25h.5c.138 0 .25-.112.25-.25v-3.5c0-.414.336-.75.75-.75s.75.336.75.75v3.5c0 .965-.785 1.75-1.75 1.75z" fill="#ffffff" data-original="#000000" style="" class=""/><path xmlns="http://www.w3.org/2000/svg" d="m21.25 23h-18.5c-1.517 0-2.75-1.233-2.75-2.75v-7.5c0-1.517 1.233-2.75 2.75-2.75h18.5c1.517 0 2.75 1.233 2.75 2.75v7.5c0 1.517-1.233 2.75-2.75 2.75zm-18.5-11.5c-.689 0-1.25.561-1.25 1.25v7.5c0 .689.561 1.25 1.25 1.25h18.5c.689 0 1.25-.561 1.25-1.25v-7.5c0-.689-.561-1.25-1.25-1.25z" fill="#ffffff" data-original="#000000" style="" class=""/><path xmlns="http://www.w3.org/2000/svg" d="m12 7c-1.654 0-3-1.346-3-3s1.346-3 3-3 3 1.346 3 3-1.346 3-3 3zm0-4.5c-.827 0-1.5.673-1.5 1.5s.673 1.5 1.5 1.5 1.5-.673 1.5-1.5-.673-1.5-1.5-1.5z" fill="#ffffff" data-original="#000000" style="" class=""/><path xmlns="http://www.w3.org/2000/svg" d="m6.75 11.5c-.102 0-.205-.021-.304-.064-.378-.168-.549-.611-.381-.99l3-6.75c.168-.378.61-.55.99-.381.378.168.549.611.381.99l-3 6.75c-.125.279-.399.445-.686.445z" fill="#ffffff" data-original="#000000" style="" class=""/><path xmlns="http://www.w3.org/2000/svg" d="m17.25 11.5c-.288 0-.562-.166-.686-.445l-3-6.75c-.168-.379.002-.822.381-.99.378-.169.821.003.99.381l3 6.75c.168.379-.002.822-.381.99-.098.043-.202.064-.304.064z" fill="#ffffff" data-original="#000000" style="" class=""/></g></svg>
